<svg id="visual" viewBox="0 0 3840 2160" width="3840" height="2160"
    xmlns="http://www.w3.org/2000/svg" xmlns:xlink="http://www.w3.org/1999/xlink" version="1.1">
    <rect x="0" y="0" width="3840" height="2160" fill="#fff"></rect>
    <g transform="translate(1877.0742686089084 1203.5781714232012)">
        <path
            d="M792.4 -1157.9C985.4 -950.6 1071.4 -663.3 1173.1 -375.3C1274.7 -87.2 1392 201.6 1318.2 428.1C1244.3 654.6 979.2 818.8 727.7 961C476.1 1103.3 238.1 1223.7 -0.3 1224.1C-238.6 1224.5 -477.3 1104.9 -690.6 950.2C-904 795.6 -1092.1 605.8 -1185.1 372.5C-1278.2 139.3 -1276.3 -137.4 -1195.2 -388.8C-1114.1 -640.1 -953.8 -866.1 -741.4 -1067.1C-529 -1268.1 -264.5 -1444.1 17.6 -1468.3C299.8 -1492.6 599.5 -1365.2 792.4 -1157.9"
            fill="#FFA600"></path>
    </g>
</svg>